<?xml version="1.0" encoding="utf-8" ?><svg xmlns="http://www.w3.org/2000/svg" xmlns:xlink="http://www.w3.org/1999/xlink" width="1125" height="472" viewBox="0 0 1125 472"><path fill="#252424" d="M285.629 103.156C286.693 103.227 287.816 103.285 288.856 103.531C291.524 104.162 292.51 108.474 292.975 110.713C295.255 121.694 294.05 150.292 293.328 161.877C292.882 169.016 289.263 192.57 292.33 198.035C293.576 198.563 294.318 198.662 295.649 198.27C299.096 197.258 301.996 194.654 305.362 193.41C310.718 191.431 317.158 190.994 322.765 189.743C325.551 189.122 330.736 187.867 332.55 185.569C333.462 184.413 333.521 182.034 333.607 180.597C333.934 175.084 333.403 169.457 333.421 163.928C333.445 156.444 333.985 148.961 333.977 141.476C333.969 132.98 331.317 119.661 336.179 112.278C337.354 110.493 338.942 109.259 341.067 108.866C342.518 108.597 344.582 108.629 345.81 109.578C347.366 110.78 347.508 112.894 347.623 114.721C348.044 121.413 347.301 128.381 346.94 135.07C346.091 150.805 345.301 166.359 347.915 181.97C376.383 178.979 403.525 170.77 431.581 165.753C451.15 162.254 471.528 159.679 491.333 157.862C496.547 157.384 501.855 157.804 507.03 157.226C514.359 156.409 522.863 152.364 530.15 154.014C531.785 154.385 532.811 154.986 533.719 156.401C534.213 158.112 533.937 159.388 533.157 160.975C531.242 164.872 524.78 173.183 520.499 174.595C519.5 174.924 519.384 174.756 518.513 174.295C517.16 172.397 516.937 170.069 516.545 167.826C492.126 168.948 467.767 171.138 443.539 174.389C418.475 177.86 393.594 182.737 368.711 187.3C361.449 188.543 353.483 189.196 347.543 193.927C347.167 200.978 347.861 208.094 348.082 215.148C348.722 235.633 349.537 255.179 353.952 275.246C354.628 278.318 355.302 282.876 353.491 285.636C351.622 288.486 347.871 291.78 344.438 292.397C342.892 292.675 341.359 292.142 340.122 291.218C335.719 287.928 336.235 276.584 335.79 271.419C334.732 259.157 333.583 246.825 333.489 234.51C333.393 221.85 334.671 208.354 332.759 195.833C324.889 196.873 298.175 201.21 293.647 207.276C291.548 210.087 291.424 215.497 291.453 218.895C291.53 227.918 293.452 236.911 294.634 245.838C296.431 259.407 297.998 272.956 300.028 286.5C297.531 290.046 294.729 293.497 291.434 296.339C289.801 297.748 288.6 298.553 286.431 298.393C284.817 297.274 284.308 296.016 283.855 294.142C282.888 290.14 283.374 285.683 283.001 281.579C281.832 268.703 280.527 255.856 279.5 242.962C278.848 234.773 279.403 225.49 277.029 217.629C271.037 211.112 241.388 231.895 231.378 229.165C229.848 228.747 229.349 228.088 228.631 226.74C228.66 226.213 228.725 225.682 228.912 225.185C233.343 213.453 266.619 208.444 277.706 203.347C280.547 192.374 279.937 174.864 280.638 163.008C281.096 155.251 282.279 147.455 282.416 139.694C282.7 123.638 279.136 119.245 285.629 103.156Z"/><path fill="#252424" d="M639.775 256.091C634.069 265.577 619.798 281.367 609.617 285.261C601.428 288.394 602.576 283.865 596.764 281.522C592.671 279.871 588.891 286.93 585.339 288.266C584.714 288.501 583.307 288.689 582.701 288.37C580.558 287.241 579.469 283.383 578.877 281.148C577.291 275.168 576.199 268.955 574.868 262.907C571.615 248.124 567.21 232.128 575.497 218.121C576.579 216.294 578.099 214.187 580.299 213.685C581.92 213.316 583.081 213.901 584.411 214.733C585.749 215.57 585.868 216.922 586.061 218.399C586.647 222.89 585.93 227.604 586.108 232.143C586.419 240.063 588.005 248.382 589.751 256.112C590.827 260.878 592.11 268.212 596.532 271.009C598.157 270.734 599.54 268.95 600.547 267.713C604.542 262.807 607.465 257.116 611.49 252.172C618.414 243.667 642.049 220.664 652.056 217.649C653.717 217.148 654.86 217.115 656.382 217.903C656.767 219.868 655.846 221.103 654.476 222.503C651.704 225.333 647.925 227.634 644.839 230.184C632.906 240.046 622.304 249.6 614.717 263.352C614.085 264.82 613.374 265.908 613.528 267.529C615.334 267.312 617.21 265.365 618.609 264.253C628.755 256.422 635.791 241.588 646.982 235.576C648.592 234.711 651.177 233.649 653.03 234.262C654.363 234.703 654.975 235.377 655.535 236.662C657.482 241.13 657.567 247.609 658.375 252.427C660.129 262.882 662.277 273.282 664.128 283.722C665.47 291.285 666.378 307.468 669.889 313.695C670.304 314.432 671.222 314.815 672.017 315.029C680.763 317.389 692.774 310.397 700.066 306.092C702.009 306.903 704.044 307.922 705.753 309.17C707.65 310.556 709.251 312.541 709.567 314.933C710.12 319.123 707.426 322.426 705.112 325.581C703.052 325.412 700.989 325.271 698.925 325.158C692.222 324.788 678.481 324.581 673.271 329.491C671.764 330.912 671.429 333.137 671.524 335.113C671.774 340.329 674.22 345.334 674.772 350.528C675.295 355.442 675.237 360.458 675.524 365.397C676.289 378.528 676.737 391.178 676.534 404.33C674.068 407.865 670.179 411.532 666.344 413.532C664.394 414.549 662.847 414.908 660.727 414.268C658.261 412.587 657.606 410.028 657.382 407.16C656.85 400.331 659.151 393.249 659.322 386.362C659.698 371.258 656.711 347.07 653.188 332.064C645.479 332.464 637.281 336.777 629.753 336.028C627.855 335.839 626.109 335.116 624.888 333.609C622.444 330.593 623.28 326.597 623.613 323.043C632.987 321.682 641.987 321.633 650.934 318.091C648.243 297.232 645.254 276.437 639.775 256.091Z"/><path fill="#252424" d="M431.468 204.521C434.594 204.241 438.379 203.924 441.399 204.873C446.76 206.558 449.001 210.943 451.37 215.611C445.077 231.115 426.378 250.173 410.825 256.906C406.811 258.643 401.944 257.976 397.849 259.77C397.342 260.377 396.893 260.634 396.97 261.466C397.156 263.47 399.24 265.315 400.69 266.574C404.602 269.972 408.567 271.1 413.718 270.717C423.755 269.969 445.8 261.721 449.941 252.112C452.254 246.744 451.754 239.098 455.802 234.633C456.756 233.58 457.979 232.889 459.419 232.848C463.376 232.733 466.914 236.375 469.58 238.883C471.011 235.219 472.677 231.11 474.718 227.754C476.98 224.037 480.17 220.773 484.549 219.784C486.945 219.243 489.384 219.528 491.455 220.901C493.994 222.585 495.652 225.3 496.889 228.022C500.695 236.396 502.117 245.704 505.109 254.368C507.88 262.39 512.659 269.372 514.272 277.822C512.585 280.428 510.461 282.552 508.304 284.764C506.768 286.369 504.622 288.299 502.571 289.212C501.168 289.836 499.425 290 497.989 289.39C492.584 287.096 486.726 253.556 483.967 246.723C483.423 245.375 482.943 244.203 481.52 243.601C481.14 243.731 480.862 243.831 480.554 244.098C477.536 246.712 470.048 267.317 468.949 272.115C468.271 275.074 468.242 278.166 468.146 281.188C465.041 283.647 460.949 287.01 456.815 286.996C455.369 286.991 453.979 286.45 452.987 285.382C449.314 281.432 450.167 273.507 450.334 268.569C442.11 272.872 435.542 279.366 426.424 282.05C415.608 285.234 401.482 286.269 391.273 280.613C385.729 277.542 381.358 272.622 379.644 266.454C377.711 259.501 378.897 251.726 382.441 245.499C391.723 229.191 413.607 209.493 431.468 204.521ZM406.605 244.294C415.807 240.611 429.71 233.351 433.839 223.671C434.253 222.7 434.332 221.842 434.255 220.796C433.51 219.504 432.934 218.641 431.377 218.259C429.516 217.802 427.293 218.061 425.393 218.187C415.857 221.262 403.821 231.089 399.254 240.042C398.361 241.793 398.3 242.893 398.872 244.734C400.488 245.68 401.333 245.746 403.164 245.275C404.316 244.968 405.463 244.641 406.605 244.294Z"/><path fill="#252424" d="M871.98 209.476C875.508 209.354 879.187 209.142 882.647 209.998C885.12 210.61 887.641 211.917 888.926 214.212C894.16 223.559 875.558 246.638 870.568 255.129C867.968 259.555 866.102 263.698 864.707 268.641C870.892 272.4 878.202 274.116 884.21 278.248C886.986 280.157 889.549 282.68 890.122 286.137C891.886 296.782 880.206 318.103 874.177 326.521C867.348 336.056 859.205 344.512 851.283 353.129C847.731 356.992 844.255 361.461 840.199 364.78C838.505 366.167 836.367 367.608 834.158 367.9C832.756 368.086 832.078 367.634 831.024 366.795C830.515 365.738 830.317 364.91 830.454 363.737C831.228 357.111 842.45 346.337 847.387 342.284C857.417 334.216 873.914 311.718 875.588 298.911C877.577 283.691 857.438 287.78 850.99 278.935C841.732 266.235 873.272 241.718 875.014 227.611C875.238 225.796 874.777 224.895 873.71 223.525C867.169 220.799 842.948 236.127 835.204 239.015C833.094 237.085 831.195 234.88 829.251 232.782C829.627 231.864 830.077 230.978 830.597 230.132C836.925 219.743 860.363 212.286 871.98 209.476Z"/><path fill="#252424" d="M716.981 227.575C718.767 227.47 721.332 227.589 723.046 228.128C726.562 229.234 727.52 234.604 727.846 237.75C729.197 250.758 729.845 265.775 736.962 277.207C739.508 281.296 743.589 284.546 745.709 288.823C746.313 290.042 746.554 291.224 746.084 292.547C744.764 296.259 740.246 299.768 736.732 301.43C735.358 302.08 733.606 302.573 732.12 302.018C724.76 299.27 716.128 276.152 712.959 268.786C708.38 279.078 703.237 286.032 695.222 293.847C691.97 296.097 688.348 297.487 684.321 296.723C681.781 296.241 679.82 294.619 678.42 292.497C676.923 290.228 675.989 287.341 675.421 284.69C674.129 278.661 674.27 272.115 673.503 265.973C672.962 261.644 671.676 257.427 671.268 253.081C671.121 251.522 671.167 249.928 671.489 248.392C672.045 245.74 674.3 243.362 676.531 241.944C678.247 240.854 680.219 240.316 682.231 240.802C693.096 243.423 688.356 267.318 692.934 275.132C694.113 275.076 694.43 274.74 695.273 273.914C697.562 271.67 698.314 268.391 699.471 265.506C703.346 255.849 706.856 246.582 706.949 236.029C706.994 235.968 707.038 235.906 707.084 235.846C709.955 232.042 712.882 229.957 716.981 227.575Z"/><path fill="#252424" d="M797.242 211.125C799.006 211.042 800.717 211.064 802.453 211.432C803.953 211.751 805.351 212.421 806.17 213.768C811.596 222.696 782.842 242.029 780.592 250.814C780.051 252.926 781.255 255.533 782.356 257.271C795.012 277.242 824.566 257.315 841.395 261.874C842.758 262.243 843.217 262.594 843.9 263.8C843.831 264.236 843.726 264.659 843.516 265.051C841.721 268.401 836.044 269.801 832.738 270.921C817.91 275.845 800.629 283.489 784.977 278.873C777.318 276.614 769.344 272.345 765.438 265.069C762.407 259.422 762.475 252.784 764.32 246.774C769.155 231.021 783.142 218.631 797.242 211.125Z"/><path fill="#252424" d="M562.507 218.29C564.176 218.132 565.801 218.185 567.329 218.973C568.387 219.519 568.68 219.755 569.068 220.88C565.873 228.388 554.595 231.546 548.781 236.77C540.454 244.25 539.103 255.4 538.542 265.955C535.737 268.468 532.44 272.08 528.837 273.279C526.444 274.075 524.417 273.334 522.277 272.239C519.116 263.817 518.587 252.941 519.207 244.041C519.548 239.145 520.565 231.312 524.584 227.984C525.654 227.098 527.008 226.743 528.381 226.883C531.867 227.239 533.697 230.338 535.687 232.862C547.336 227.516 547.35 221.134 562.507 218.29Z"/><path fill="#252424" d="M618.732 156.614C620.874 156.474 623.159 156.7 624.849 158.157C626.013 159.16 626.573 160.618 626.644 162.131C626.851 166.574 624.149 170.221 621.324 173.327C613.126 175.651 605.494 178.216 598.868 183.823C590.828 190.627 588.193 197.439 577.604 201.368C576.749 201.34 575.86 201.252 575.023 201.075C573.154 200.681 571.313 199.155 570.302 197.562C569.466 196.243 569.219 194.633 569.622 193.124C569.979 191.747 570.737 190.506 571.799 189.561C578.003 184.132 585.799 180.369 592.542 175.615C601.4 169.368 609.326 162.115 618.732 156.614Z"/><defs><linearGradient id="gradient_0" gradientUnits="userSpaceOnUse" x1="615.27313" y1="263.34592" x2="616.06451" y2="266.09921"><stop offset="0" stop-color="white" stop-opacity="0"/><stop offset="1" stop-color="#F6F6F6" stop-opacity="0.031372551"/></linearGradient></defs><path fill="url(#gradient_0)" d="M614.717 263.352C616.291 263.344 617.228 263.478 618.609 264.253C617.21 265.365 615.334 267.312 613.528 267.529C613.374 265.908 614.085 264.82 614.717 263.352Z"/></svg>